<?xml version="1.0" encoding="UTF-8" standalone="no"?>
<!-- Created with Inkscape (http://www.inkscape.org/) -->

<svg
   xmlns:dc="http://purl.org/dc/elements/1.1/"
   xmlns:cc="http://creativecommons.org/ns#"
   xmlns:rdf="http://www.w3.org/1999/02/22-rdf-syntax-ns#"
   xmlns:svg="http://www.w3.org/2000/svg"
   xmlns="http://www.w3.org/2000/svg"
   xmlns:sodipodi="http://sodipodi.sourceforge.net/DTD/sodipodi-0.dtd"
   xmlns:inkscape="http://www.inkscape.org/namespaces/inkscape"
   width="256"
   height="256"
   viewBox="0 0 256 256"
   id="svg2"
   version="1.1"
   inkscape:version="0.92.4 (5da689c313, 2019-01-14)"
   sodipodi:docname="Cactus_Logo-01.svg"
   inkscape:export-filename="/home/maso/Downloads/logo.svg.png"
   inkscape:export-xdpi="385.95999"
   inkscape:export-ydpi="385.95999">
  <defs
     id="defs4">
    <clipPath
       id="clipPath3352"
       clipPathUnits="userSpaceOnUse">
      <path
         inkscape:connector-curvature="0"
         id="path3354"
         d="M 9.343,296.537 H 387.066 V 138.308 H 9.343 Z" />
    </clipPath>
    <clipPath
       id="clipPath3364"
       clipPathUnits="userSpaceOnUse">
      <path
         inkscape:connector-curvature="0"
         id="path3366"
         d="M 9.33,304.234 H 228.821 V 621.677 H 9.33 Z" />
    </clipPath>
    <clipPath
       id="clipPath3376"
       clipPathUnits="userSpaceOnUse">
      <path
         inkscape:connector-curvature="0"
         id="path3378"
         d="m 301.058,447.284 0.913,-97.101 h 30.98 l -1.089,97.101 z" />
    </clipPath>
    <clipPath
       id="clipPath3388"
       clipPathUnits="userSpaceOnUse">
      <path
         inkscape:connector-curvature="0"
         id="path3390"
         d="m 328.188,447.284 0.912,-97.101 h 30.981 l -1.089,97.101 z" />
    </clipPath>
    <clipPath
       id="clipPath3400"
       clipPathUnits="userSpaceOnUse">
      <path
         inkscape:connector-curvature="0"
         id="path3402"
         d="m 354.693,447.284 0.912,-97.101 h 30.981 l -1.089,97.101 z" />
    </clipPath>
    <clipPath
       id="clipPath3412"
       clipPathUnits="userSpaceOnUse">
      <path
         inkscape:connector-curvature="0"
         id="path3414"
         d="m 370.649,447.284 0.912,-97.101 h 30.981 l -1.089,97.101 z" />
    </clipPath>
    <clipPath
       id="clipPath3424"
       clipPathUnits="userSpaceOnUse">
      <path
         inkscape:connector-curvature="0"
         id="path3426"
         d="m 395.646,447.284 0.913,-97.101 h 16.212 v 97.101 z" />
    </clipPath>
    <clipPath
       id="clipPath3436"
       clipPathUnits="userSpaceOnUse">
      <path
         inkscape:connector-curvature="0"
         id="path3438"
         d="m 273.954,447.284 0.912,-97.101 h 30.981 l -1.089,97.101 z" />
    </clipPath>
    <clipPath
       id="clipPath3448"
       clipPathUnits="userSpaceOnUse">
      <path
         inkscape:connector-curvature="0"
         id="path3450"
         d="m 256.037,447.284 0.913,-97.101 h 30.981 l -1.089,97.101 z" />
    </clipPath>
    <clipPath
       id="clipPath3460"
       clipPathUnits="userSpaceOnUse">
      <path
         inkscape:connector-curvature="0"
         id="path3462"
         d="m 236.676,447.284 v -97.101 h 29.263 l -1.089,97.101 z" />
    </clipPath>
    <clipPath
       id="clipPath3472"
       clipPathUnits="userSpaceOnUse">
      <path
         inkscape:connector-curvature="0"
         id="path3474"
         d="m 236.676,447.284 v -97.101 h 0.334 l 12.795,2.093 -0.34,95.008 z" />
    </clipPath>
    <clipPath
       id="clipPath3484"
       clipPathUnits="userSpaceOnUse">
      <path
         inkscape:connector-curvature="0"
         id="path3486"
         d="m 301.186,387.781 0.785,-83.547 h 30.98 l -0.937,83.547 z" />
    </clipPath>
    <clipPath
       id="clipPath3496"
       clipPathUnits="userSpaceOnUse">
      <path
         inkscape:connector-curvature="0"
         id="path3498"
         d="m 328.315,387.781 0.785,-83.547 h 30.981 l -0.937,83.547 z" />
    </clipPath>
    <clipPath
       id="clipPath3508"
       clipPathUnits="userSpaceOnUse">
      <path
         inkscape:connector-curvature="0"
         id="path3510"
         d="m 354.82,387.781 0.785,-83.547 h 30.981 l -0.937,83.547 z" />
    </clipPath>
    <clipPath
       id="clipPath3520"
       clipPathUnits="userSpaceOnUse">
      <path
         inkscape:connector-curvature="0"
         id="path3522"
         d="m 370.777,387.781 0.784,-83.547 h 30.982 l -0.938,83.547 z" />
    </clipPath>
    <clipPath
       id="clipPath3532"
       clipPathUnits="userSpaceOnUse">
      <path
         inkscape:connector-curvature="0"
         id="path3534"
         d="m 395.774,387.781 0.785,-83.547 h 16.212 v 83.547 z" />
    </clipPath>
    <clipPath
       id="clipPath3544"
       clipPathUnits="userSpaceOnUse">
      <path
         inkscape:connector-curvature="0"
         id="path3546"
         d="m 274.081,387.781 0.785,-83.547 h 30.981 l -0.937,83.547 z" />
    </clipPath>
    <clipPath
       id="clipPath3556"
       clipPathUnits="userSpaceOnUse">
      <path
         inkscape:connector-curvature="0"
         id="path3558"
         d="m 256.165,387.781 0.785,-83.547 h 30.981 l -0.937,83.547 z" />
    </clipPath>
    <clipPath
       id="clipPath3568"
       clipPathUnits="userSpaceOnUse">
      <path
         inkscape:connector-curvature="0"
         id="path3570"
         d="m 236.676,387.781 v -83.547 h 29.264 l -0.938,83.547 z" />
    </clipPath>
    <clipPath
       id="clipPath3580"
       clipPathUnits="userSpaceOnUse">
      <path
         inkscape:connector-curvature="0"
         id="path3582"
         d="m 236.676,387.781 v -83.547 h 0.334 l 12.795,2.094 -0.292,81.453 z" />
    </clipPath>
    <clipPath
       id="clipPath3592"
       clipPathUnits="userSpaceOnUse">
      <path
         inkscape:connector-curvature="0"
         id="path3594"
         d="m 393.45,350.183 h 37.745 v 97.101 H 393.45 Z" />
    </clipPath>
    <clipPath
       id="clipPath3604"
       clipPathUnits="userSpaceOnUse">
      <path
         inkscape:connector-curvature="0"
         id="path3606"
         d="m 393.45,304.234 h 37.745 v 83.547 H 393.45 Z" />
    </clipPath>
    <clipPath
       id="clipPath3616"
       clipPathUnits="userSpaceOnUse">
      <path
         inkscape:connector-curvature="0"
         id="path3618"
         d="M 9.331,9.331 H 632.953 V 879.567 H 9.331 Z" />
    </clipPath>
    <clipPath
       id="clipPath3632"
       clipPathUnits="userSpaceOnUse">
      <path
         inkscape:connector-curvature="0"
         id="path3634"
         d="M 439.121,138.307 H 632.953 V 447.282 H 439.121 Z" />
    </clipPath>
    <clipPath
       id="clipPath3644"
       clipPathUnits="userSpaceOnUse">
      <path
         inkscape:connector-curvature="0"
         id="path3646"
         d="M 237.622,454.433 H 431.126 V 621.677 H 237.622 Z" />
    </clipPath>
    <clipPath
       id="clipPath3656"
       clipPathUnits="userSpaceOnUse">
      <path
         inkscape:connector-curvature="0"
         id="path3658"
         d="M 9.331,873.902 H 380.665 V 629.847 H 9.331 Z" />
    </clipPath>
    <clipPath
       id="clipPath3668"
       clipPathUnits="userSpaceOnUse">
      <path
         inkscape:connector-curvature="0"
         id="path3670"
         d="M 387.756,672.638 H 632.953 V 875.315 H 387.756 Z" />
    </clipPath>
    <clipPath
       id="clipPath3680"
       clipPathUnits="userSpaceOnUse">
      <path
         inkscape:connector-curvature="0"
         id="path3682"
         d="M 439.121,454.433 H 632.822 V 621.677 H 439.121 Z" />
    </clipPath>
    <clipPath
       id="clipPath3696"
       clipPathUnits="userSpaceOnUse">
      <path
         inkscape:connector-curvature="0"
         id="path3698"
         d="M 9.331,9.331 H 632.953 V 879.567 H 9.331 Z" />
    </clipPath>
    <clipPath
       id="clipPath3732"
       clipPathUnits="userSpaceOnUse">
      <path
         inkscape:connector-curvature="0"
         id="path3734"
         d="M 0,0 H 642.284 V 888.898 H 0 Z" />
    </clipPath>
  </defs>
  <sodipodi:namedview
     id="base"
     pagecolor="#ffffff"
     bordercolor="#666666"
     borderopacity="1.0"
     inkscape:pageopacity="0.0"
     inkscape:pageshadow="2"
     inkscape:zoom="0.35"
     inkscape:cx="512.8528"
     inkscape:cy="53.719714"
     inkscape:document-units="px"
     inkscape:current-layer="layer1"
     showgrid="false"
     inkscape:window-width="1366"
     inkscape:window-height="741"
     inkscape:window-x="0"
     inkscape:window-y="27"
     inkscape:window-maximized="1"
     fit-margin-top="0"
     fit-margin-left="0"
     fit-margin-right="0"
     fit-margin-bottom="0" />
  <metadata
     id="metadata7">
    <rdf:RDF>
      <cc:Work
         rdf:about="">
        <dc:format>image/svg+xml</dc:format>
        <dc:type
           rdf:resource="http://purl.org/dc/dcmitype/StillImage" />
        <dc:title></dc:title>
      </cc:Work>
    </rdf:RDF>
  </metadata>
  <g
     inkscape:label="Layer 1"
     inkscape:groupmode="layer"
     id="layer1"
     transform="translate(153.56709,-336.08192)">
    <g
       id="g3700"
       transform="matrix(-5.4654142,0,0,-4.0280072,29.835814,524.75378)"
       style="stroke-width:0.82842433">
      <path
         d="m 0,0 c 0,-1.907 1.589,-3.432 3.495,-3.432 v 43.599 c 0,3.686 2.924,6.673 6.61,6.673 3.686,0 6.673,-2.987 6.673,-6.673 V 13.283 c 1.907,0 3.432,1.589 3.432,3.496 v 6.673 c 0,3.686 2.987,6.609 6.674,6.609 3.686,0 6.673,-2.923 6.673,-6.609 L 33.493,23.388 V 16.779 C 33.493,7.563 25.994,0.064 16.778,0.064 V -16.715 H 3.495 c -9.278,0 -16.778,7.5 -16.778,16.779 v 23.388 c 0,3.686 2.987,6.609 6.673,6.609 3.686,0 6.673,-2.923 6.673,-6.609 H 0 Z"
         style="fill:#00a650;fill-opacity:1;fill-rule:nonzero;stroke:none;stroke-width:0.82842433"
         id="path3702"
         inkscape:connector-curvature="0" />
    </g>
  </g>
</svg>
